**ABCDEFGHIJKLMNOPQRSTUVWXYZabcdefghijklmnopqrstuvwxyz**************************
**PARASOLID !"#$%&'()*+,-./:;<=>?@[\]^_`{|}~0123456789**************************
**PART1;
MC=AMD64;
MC_MODEL=AMD64 Family 25 Model 80 Stepping 0, AuthenticAMD;
MC_ID=unknown;
OS=Windows_NT;
OS_RELEASE=unknown;
FRU=Parasolid Version 28.0, build 204, 11- 9-2015;
APPL=SOLIDWORKS 2016-2016040;
SITE=;
USER=unknown;
FORMAT=text;
GUISE=transmit;
KEY=makeProjectedPlanarWire;
FILE=makeProjectedPlanarWire.x_t;
DATE=Mon Mar 28 19:42:07 2022;
**PART2;
SCH=SCH_2800204_28002;
USFLD_SIZE=0;
**PART3;
**END_OF_HEADER*****************************************************************
T51 : TRANSMIT FILE created by modeller version 280020423 SCH_2800204_28002_1300
6200 0 12 30 CCCCCCCCCCCCCDI5 owner1040 0 CCCCCCCCCA13 boundary_mesh1006 0 A16 i
ndex_map_offset0 0 1 dA9 index_map82 0 A17 node_id_index_map82 0 A20 schema_embe
dding_map82 0 A5 child12 0 A14 lowest_node_id0 0 1 dZ1 135 0 0 0 0 0 0 1e3 1e-8
 0 2 0 1 0 3 1 3 4 5 6 7 8 9 0 0 0 0 0 0 0 13 255 3 19 0 1 0 10 0 0 7 10 50 255
 4 2 0 10 0 0 0 +0 .0325 0 0 1 0 0 0 1 31 255 5 14 0 8 11 0 0 +.19136 .0325 .033
 0 1 0 0 0 1 .0035 29 255 6 135 0 9 12 0 .192420660171781 .0325 .031939339828220
1 19 8 CCCCCCCA5 owner12 0 Z7 18 0 1 0 0 3 V0 16 255 8 13 0 ?13 0 14 5 0 0 1 18
 255 9 113 0 15 0 16 6 ?1 17 255 15 0 17 18 19 9 20 21 0 22 -18 16 90 0 20 9 23
 12 ?1 17 20 0 0 0 0 16 15 21 0 19 +18 23 67 0 24 16 25 26 ?1 29 12 112 0 16 26
 6 .1902993398282215 .0325 .0319393398282201 29 26 89 0 23 27 12 .19029933982822
15 .0325 .0340606601717797 29 27 66 0 25 0 26 .192420660171781 .0325 .0340606601
717797 18 25 65 0 28 23 0 27 ?1 17 28 0 0 0 0 25 29 30 0 18 +17 29 0 17 19 18 23
 28 30 0 0 -16 30 68 0 ?28 31 0 11 14 31 1 17 18 0 17 29 15 25 22 14 0 0 -15 255
 17 6 0 18 10 32 17 22 0 0 0 0 9 18 14 0 0 +16 14 8 0 ?22 8 21 11 21 30 1 16 21
 114 0 ?20 14 31 11 31 14 1 31 11 9 0 14 0 5 0 +.19136 .0325 .033 0 1 0 0 0 1 .0
015 16 31 91 0 ?24 21 30 11 30 21 1 17 24 0 0 0 0 23 19 31 0 29 +17 19 0 17 15 2
9 16 24 31 0 0 -14 255 10 1 0 ?0 0 17 3 4 +0 0 0 0 3 15 32 7 0 13 10 0 17 13 0 3
2 13 13 0 33 8 0 0 +17 33 0 0 0 0 0 13 8 0 0 -1 0 
